<svg xmlns="http://www.w3.org/2000/svg" viewBox="0 0 500 500"><g id="freepik--background-complete--inject-206"><path d="M89,378.57s0-.07,0-.21v-.58c0-.54,0-1.3,0-2.26,0-2,0-4.83-.07-8.42l.13.14-43.35.08c.09-.1-.23.22.21-.22h0v11.45l-.22-.21,30.9.09,9.12.07,2.47,0,.65,0H89s-.06,0-.2,0h-.62l-2.41,0-9.08.06-31,.1h-.21v-.22c0-1.84,0-3.73,0-5.64v-5.81h0c.44-.44.13-.12.23-.22L89,367h.14v.13c0,3.62-.06,6.5-.08,8.5,0,.95,0,1.69,0,2.23,0,.23,0,.41,0,.56S89,378.58,89,378.57Z" style="fill:#e0e0e0"></path><rect x="62.62" y="38.8" width="104.13" height="172.37" style="fill:#e0e0e0"></rect><rect x="59.16" y="38.8" width="104.13" height="172.37" style="fill:#ebebeb"></rect><rect x="63.6" y="42.3" width="95.26" height="165.38" style="fill:#fff"></rect><rect x="81.73" y="63.78" width="58.58" height="122.4" style="fill:#ebebeb"></rect><path d="M81.73,142.87c-.13-11.43,10.15-22.6,21.47-24.19,5.4-.76,11.13.31,16.18-1.76,9-3.69,11.87-15.66,20.93-19.2l.41,88.46h-59Z" style="fill:#e0e0e0"></path><path d="M459.45,133.38a3.44,3.44,0,1,1-3.74-3.09A3.43,3.43,0,0,1,459.45,133.38Z" style="fill:#ebebeb"></path><path d="M458.84,132.29c-.15.14-2.64-2.48-5.07-6.18s-4.32-6.69-4.17-6.8,2.4,2.69,4.8,6.38S459,132.15,458.84,132.29Z" style="fill:#ebebeb"></path><path d="M455.54,114.94c.19,0-.36,1.9-2.17,3.31s-3.73,1.54-3.72,1.34,1.64-.64,3.25-1.94S455.34,114.84,455.54,114.94Z" style="fill:#ebebeb"></path><path d="M457.33,118c.2,0-.27,1.89-2.14,3.14s-3.76,1-3.71.84,1.67-.33,3.29-1.46S457.13,117.93,457.33,118Z" style="fill:#ebebeb"></path><path d="M443.34,94.91a3.43,3.43,0,1,1-2.12-4.37A3.44,3.44,0,0,1,443.34,94.91Z" style="fill:#ebebeb"></path><path d="M443.24,93.66c-.2.07-1.38-3.35-2.05-7.73s-1.16-7.87-1-7.92,1.07,3.45,1.72,7.8S443.44,93.6,443.24,93.66Z" style="fill:#ebebeb"></path><path d="M447.44,76.5c.16.12-1.12,1.58-3.35,2.11s-4-.14-3.94-.32,1.75.1,3.76-.41S447.3,76.33,447.44,76.5Z" style="fill:#ebebeb"></path><path d="M447.79,80.05c.17.11-1,1.61-3.25,2s-3.85-.62-3.72-.77,1.65.39,3.59,0S447.64,79.88,447.79,80.05Z" style="fill:#ebebeb"></path><path d="M345.73,258.64a3.43,3.43,0,1,1-2.12-4.37A3.43,3.43,0,0,1,345.73,258.64Z" style="fill:#ebebeb"></path><path d="M345.64,257.39c-.2.07-1.38-3.35-2.05-7.73s-1.16-7.87-1-7.92,1.07,3.45,1.72,7.8S345.83,257.33,345.64,257.39Z" style="fill:#ebebeb"></path><path d="M349.83,240.23c.16.12-1.12,1.58-3.35,2.11s-4-.14-3.94-.32,1.76.1,3.76-.41S349.69,240.06,349.83,240.23Z" style="fill:#ebebeb"></path><path d="M350.18,243.78c.18.11-1,1.61-3.25,2s-3.85-.62-3.72-.77,1.65.39,3.6,0S350,243.61,350.18,243.78Z" style="fill:#ebebeb"></path><path d="M402.61,105.71a3.74,3.74,0,1,1-2.91-4.42A3.74,3.74,0,0,1,402.61,105.71Z" style="fill:#e0e0e0"></path><path d="M402.33,104.38c-.33.16-2.19-3.35-3.53-8s-2.26-8.36-1.94-8.48S398.72,91.42,400,96,402.65,104.23,402.33,104.38Z" style="fill:#e0e0e0"></path><path d="M408.92,86.79c.2.23-2.09,2.35-5.81,3a8.63,8.63,0,0,1-4.75-.34c-1.17-.46-1.65-1.15-1.54-1.26s.73.2,1.81.39a12.21,12.21,0,0,0,4.25-.06C406.23,88,408.7,86.44,408.92,86.79Z" style="fill:#e0e0e0"></path><path d="M414.67,104.59a3.74,3.74,0,1,1-2.91-4.41A3.74,3.74,0,0,1,414.67,104.59Z" style="fill:#e0e0e0"></path><path d="M414.39,103.27c-.33.15-2.19-3.35-3.53-8s-2.26-8.36-1.94-8.48,1.86,3.51,3.18,8.11S414.71,103.11,414.39,103.27Z" style="fill:#e0e0e0"></path><path d="M409.74,89.21c.25.22-1.8,2.4-5.26,3.16s-6.25-.3-6.11-.62,2.72.07,5.82-.65S409.51,88.91,409.74,89.21Z" style="fill:#e0e0e0"></path><path d="M209.87,189.89a3.74,3.74,0,1,1-2.91-4.42A3.75,3.75,0,0,1,209.87,189.89Z" style="fill:#e0e0e0"></path><path d="M209.59,188.56c-.33.16-2.19-3.35-3.53-8s-2.26-8.36-1.94-8.48,1.86,3.51,3.18,8.11S209.91,188.41,209.59,188.56Z" style="fill:#e0e0e0"></path><path d="M216.18,171c.2.23-2.09,2.36-5.81,3a8.73,8.73,0,0,1-4.75-.33c-1.17-.47-1.65-1.16-1.54-1.27s.73.2,1.81.39a12,12,0,0,0,4.25-.06C213.49,172.13,216,170.62,216.18,171Z" style="fill:#e0e0e0"></path><path d="M221.93,188.78a3.74,3.74,0,1,1-2.91-4.42A3.74,3.74,0,0,1,221.93,188.78Z" style="fill:#e0e0e0"></path><path d="M221.65,187.45c-.33.15-2.19-3.35-3.53-8s-2.26-8.36-1.94-8.49,1.87,3.51,3.18,8.11S222,187.3,221.65,187.45Z" style="fill:#e0e0e0"></path><path d="M217,173.39c.26.23-1.8,2.4-5.26,3.16s-6.25-.3-6.11-.61,2.72.07,5.82-.66S216.77,173.09,217,173.39Z" style="fill:#e0e0e0"></path><path d="M373.55,230.87a4.68,4.68,0,1,1-4.33-5A4.68,4.68,0,0,1,373.55,230.87Z" style="fill:#e0e0e0"></path><path d="M373,229.27c-.37.25-3.26-3.8-5.68-9.34s-4.16-10-3.79-10.2,2.89,4.05,5.27,9.54S373.36,229,373,229.27Z" style="fill:#e0e0e0"></path><path d="M378.29,206.38c.28.24-2.21,3.25-6.71,4.7a10.92,10.92,0,0,1-5.95.36c-1.53-.39-2.24-1.17-2.12-1.32s.94.13,2.31.19a15,15,0,0,0,5.27-.77C375.14,208.26,378,206,378.29,206.38Z" style="fill:#e0e0e0"></path><path d="M388.33,227.52a4.68,4.68,0,1,1-4.33-5A4.69,4.69,0,0,1,388.33,227.52Z" style="fill:#e0e0e0"></path><path d="M387.76,225.92c-.37.25-3.25-3.8-5.68-9.34s-4.16-10-3.79-10.2,2.89,4,5.27,9.54S388.14,225.68,387.76,225.92Z" style="fill:#e0e0e0"></path><path d="M379.7,209.24c.35.24-1.84,3.27-6,4.78s-7.79.64-7.68.24,3.39-.36,7.12-1.77S379.36,208.9,379.7,209.24Z" style="fill:#e0e0e0"></path><path d="M240.67,202.34a2.31,2.31,0,1,1,.75-3.18A2.32,2.32,0,0,1,240.67,202.34Z" style="fill:#e0e0e0"></path><path d="M241.15,201.65c-.21-.08.57-2.4,2.09-5s2.79-4.55,3-4.47-.79,2.33-2.29,4.87S241.35,201.73,241.15,201.65Z" style="fill:#e0e0e0"></path><path d="M251.83,197.14c0,.19-1.94.06-3.82-1.32a5.35,5.35,0,0,1-1.86-2.27c-.29-.73-.19-1.23-.09-1.23s.22.41.6,1a7.39,7.39,0,0,0,1.83,1.88C250.17,196.43,251.9,196.9,251.83,197.14Z" style="fill:#e0e0e0"></path><path d="M246.29,207.27a2.31,2.31,0,1,1,.75-3.17A2.31,2.31,0,0,1,246.29,207.27Z" style="fill:#e0e0e0"></path><path d="M246.77,206.58c-.21-.07.57-2.4,2.08-5s2.8-4.56,3-4.47-.78,2.33-2.28,4.87S247,206.66,246.77,206.58Z" style="fill:#e0e0e0"></path><path d="M251.1,198.54c0,.2-1.84.21-3.65-1s-2.51-2.92-2.32-3,1.12,1.25,2.77,2.34S251.13,198.3,251.1,198.54Z" style="fill:#e0e0e0"></path><rect x="89.16" y="326.73" width="183.03" height="84.41" style="fill:#f5f5f5"></rect><path d="M267.84,407.16H93.35v-76H267.84ZM94.49,406H266.7V332.31H94.49Z" style="fill:#e0e0e0"></path><rect x="272.19" y="326.73" width="44.71" height="84.41" style="fill:#e0e0e0"></rect><path d="M93.92,354.69H267.27a.23.23,0,0,0,0-.46H93.92a.23.23,0,0,0,0,.46Z" style="fill:#e0e0e0"></path><path d="M181.16,354.46a190.68,190.68,0,0,0,.06-22.93.24.24,0,0,0-.47,0,190.68,190.68,0,0,0,.06,22.93.18.18,0,0,0,.35,0Z" style="fill:#e0e0e0"></path><path d="M227.82,343a2.36,2.36,0,1,1-2.36-2.36A2.36,2.36,0,0,1,227.82,343Z" style="fill:#e0e0e0"></path><path d="M136.85,343a2.37,2.37,0,1,1-2.37-2.36A2.36,2.36,0,0,1,136.85,343Z" style="fill:#e0e0e0"></path><path d="M183,369.16a2.37,2.37,0,1,1-2.37-2.36A2.37,2.37,0,0,1,183,369.16Z" style="fill:#e0e0e0"></path><polygon points="111.05 411.14 101.62 464.13 106.92 464.13 124.3 411.14 111.05 411.14" style="fill:#e0e0e0"></polygon><polygon points="259.25 411.14 267.13 464.23 261.82 464.23 245.99 411.14 259.25 411.14" style="fill:#e0e0e0"></polygon><polygon points="294.63 411.14 303.56 464.23 298.26 464.23 281.38 411.14 294.63 411.14" style="fill:#e0e0e0"></polygon><path d="M182.8,393.05a2.37,2.37,0,1,1-2.36-2.36A2.37,2.37,0,0,1,182.8,393.05Z" style="fill:#e0e0e0"></path><path d="M93.92,380.83H267.27a.23.23,0,0,0,0-.46H93.92a.23.23,0,0,0,0,.46Z" style="fill:#e0e0e0"></path><rect x="183.62" y="264.92" width="11.27" height="55.34" transform="translate(480.84 101.8) rotate(89.7)" style="fill:#e0e0e0"></rect><rect x="183.96" y="287.06" width="17.5" height="61.68" transform="matrix(0.01, 1, -1, 0.01, 509.59, 123.51)" style="fill:#f5f5f5"></rect><path d="M211.72,326.37c-.17,0-.3-3.92-.3-8.75s.13-8.76.3-8.76a65.3,65.3,0,0,1,.3,8.76A65.21,65.21,0,0,1,211.72,326.37Z" style="fill:#e0e0e0"></path><path d="M214.31,326.37c-.17,0-.3-3.92-.3-8.75s.13-8.76.3-8.76a65.3,65.3,0,0,1,.3,8.76A65.21,65.21,0,0,1,214.31,326.37Z" style="fill:#e0e0e0"></path><path d="M171.2,326.37a65.21,65.21,0,0,1-.3-8.75,65.3,65.3,0,0,1,.3-8.76c.17,0,.3,3.92.3,8.76S171.37,326.37,171.2,326.37Z" style="fill:#e0e0e0"></path><path d="M173.79,326.37a65.21,65.21,0,0,1-.3-8.75,65.3,65.3,0,0,1,.3-8.76c.17,0,.3,3.92.3,8.76S174,326.37,173.79,326.37Z" style="fill:#e0e0e0"></path><path d="M179.45,317.9c0-.17,6.22-.3,13.89-.3s13.9.13,13.9.3-6.22.3-13.9.3S179.45,318.07,179.45,317.9Z" style="fill:#e0e0e0"></path><rect x="203.05" y="265.4" width="11.27" height="76.11" transform="translate(511.03 93.18) rotate(89.7)" style="fill:#ebebeb"></rect><path d="M235.87,307.49a3.65,3.65,0,1,1,3.59-3.64A3.62,3.62,0,0,1,235.87,307.49Z" style="fill:#e0e0e0"></path><rect x="199.37" y="278.37" width="2.25" height="50.95" transform="translate(504.35 103.35) rotate(90)" style="fill:#e0e0e0"></rect><rect x="374.26" y="289.47" width="43.36" height="11.47" style="fill:#ebebeb"></rect><path d="M399.28,313a1.66,1.66,0,0,1,0-.21l0-.59c0-.54,0-1.29,0-2.25,0-2,0-4.83-.07-8.42l.13.13-43.36.09.22-.22h0V313l-.22-.22,30.9.1,9.12.06,2.47,0,.64,0h0l-.62,0-2.42,0-9.07.06-31.05.1h-.22V301.57h0l.22-.22,43.36.08h.14v.14c0,3.62-.06,6.5-.08,8.5q0,1.43,0,2.22c0,.23,0,.42,0,.57S399.29,313,399.28,313Z" style="fill:#e0e0e0"></path><path d="M442.91,261.5s0-.08,0-.21l0-.59c0-.54,0-1.29,0-2.26,0-2,0-4.82-.07-8.41l.13.13-43.36.09.22-.22h0V261.5l-.22-.22,30.9.1,9.12.06,2.47,0h.64l.23,0h-.2l-.62,0-2.42,0-9.07.07-31.05.09h-.22V250.05h0c.44-.45.12-.13.22-.22l43.36.08h.14V250c0,3.62-.05,6.49-.07,8.49,0,1,0,1.7,0,2.23l0,.57C442.92,261.44,442.92,261.5,442.91,261.5Z" style="fill:#e0e0e0"></path><path d="M448.79,250a1.12,1.12,0,0,1,0-.22c0-.17,0-.37,0-.61,0-.56,0-1.33,0-2.3,0-2-.05-4.85-.09-8.34l.16.15-26.05.07c-.2.19.27-.27.22-.22h0v3c0,1,0,2,0,2.92V250l-.21-.21,18.63.1,5.43.05,1.47,0,.52,0a3.81,3.81,0,0,1-.47,0l-1.42,0-5.38.06-18.78.1h-.21V250c0-1.79,0-3.65,0-5.57v-5.88h0s.42-.42.22-.23l26.05.07H449v.16c0,3.53-.07,6.4-.09,8.44,0,.95,0,1.71,0,2.26A7.28,7.28,0,0,1,448.79,250Z" style="fill:#e0e0e0"></path><path d="M446.77,375.78a1.57,1.57,0,0,1,0-.2c0-.16,0-.35,0-.59,0-.54,0-1.29,0-2.26,0-2,0-4.83-.07-8.42l.13.14-43.35.08c.09-.09-.23.22.21-.22h0v11.45l-.22-.21,30.9.1,9.12.06,2.47,0h.87s-.06,0-.2,0H446l-2.42,0-9.07.06-31,.1h-.21v-.22c0-1.84,0-3.72,0-5.64v-5.81h0c.44-.44.13-.12.23-.22l43.35.09h.14v.13c0,3.63-.06,6.5-.08,8.5,0,.95,0,1.69,0,2.23v.56C446.78,375.73,446.78,375.79,446.77,375.78Z" style="fill:#e0e0e0"></path><path d="M390.66,47.64s0-.08,0-.21,0-.35,0-.59c0-.54,0-1.29,0-2.26,0-2,0-4.82-.07-8.41l.13.13-43.36.09.22-.22h0V42c0,1.91,0,3.79,0,5.64l-.21-.22,30.9.1,9.12.06,2.47,0h.64l.23,0h-.2l-.62,0-2.42,0-9.07.07-31.05.09h-.22V36.19h0c.44-.44.12-.13.22-.22l43.36.08h.14v.14c0,3.62-.05,6.49-.07,8.49,0,1,0,1.7,0,2.23,0,.23,0,.42,0,.57A1.23,1.23,0,0,1,390.66,47.64Z" style="fill:#e0e0e0"></path><path d="M255.92,88s0-.08,0-.21,0-.35,0-.59c0-.54,0-1.29,0-2.26,0-2,0-4.83-.07-8.42l.13.14-43.36.09.22-.22h0v5.82c0,1.92,0,3.8,0,5.65l-.21-.22,30.9.1,9.12.06,2.47,0h.64l.23,0h-.82l-2.42,0-9.07.06-31.05.1h-.22V76.54h0c.44-.45.12-.13.22-.23l43.36.09h.14v.13c0,3.63-.05,6.5-.07,8.5,0,1,0,1.7,0,2.23l0,.56A1.31,1.31,0,0,1,255.92,88Z" style="fill:#e0e0e0"></path><path d="M261.8,76.53a.85.85,0,0,1,0-.21c0-.17,0-.37,0-.61,0-.57,0-1.33,0-2.3,0-2-.05-4.85-.09-8.35l.16.16-26.05.06.22-.22h0v3c0,1,0,2,0,2.92v5.56l-.21-.21,18.63.1,5.43.06,1.47,0,.52,0a2.56,2.56,0,0,1-.47,0l-1.42,0-5.39.06-18.77.1h-.21v-.22c0-1.78,0-3.64,0-5.56V68.05c0-.49,0-1,0-1.48v-1.5h0s.42-.41.23-.22l26.05.06H262v.15c0,3.54-.07,6.41-.09,8.45,0,.95,0,1.7,0,2.26A6.72,6.72,0,0,1,261.8,76.53Z" style="fill:#e0e0e0"></path><path d="M67.21,256.33s0-.08,0-.21,0-.35,0-.59c0-.54,0-1.29,0-2.26,0-2,0-4.82-.07-8.41l.13.13-43.36.09.22-.22h0v11.45l-.22-.22,30.9.1,9.12.06,2.47,0,.64,0h0l-.62,0-2.42,0-9.07.06-31,.1h-.21v-.22c0-1.85,0-3.73,0-5.64v-5.81h0c.44-.44.13-.12.22-.22l43.36.08h.14v.14c0,3.62-.06,6.5-.08,8.49,0,1,0,1.7,0,2.23v.57C67.22,256.27,67.22,256.33,67.21,256.33Z" style="fill:#e0e0e0"></path><path d="M73.09,244.86s0-.08,0-.22,0-.36,0-.61c0-.56,0-1.33,0-2.3,0-2,0-4.85-.09-8.34l.16.16L47,233.61l.22-.22h0v5.89c0,1.91,0,3.78,0,5.56l-.21-.21,18.64.1,5.43.06,1.46,0,.52,0a2.23,2.23,0,0,1-.47,0l-1.42,0-5.38.06-18.78.1h-.21v-.21c0-1.78,0-3.65,0-5.56v-5.89h0l.22-.22,26.05.06h.16v.16c0,3.53-.06,6.4-.08,8.44,0,.95,0,1.71,0,2.26S73.1,244.87,73.09,244.86Z" style="fill:#e0e0e0"></path></g><g id="freepik--Plant--inject-206"><path d="M402.45,383.89c-.09.1-.8-.32-1.59-1s-1.36-1.23-1.28-1.34.8.32,1.59,1S402.53,383.78,402.45,383.89Z" style="fill:#263238"></path><path d="M424.06,351.59c.13-3,.22-6.12-.74-9s-3.16-5.51-6.12-6.12c-3.37-.7-6.83,1.43-8.73,4.31s-2.54,6.39-3.1,9.79a345.31,345.31,0,0,0-4.23,71L415,423.55C421,398.75,423,377.09,424.06,351.59Z" style="fill:#455a64"></path><path d="M415.28,336.38s0,.08-.06.22l-.23.63-.92,2.39c-.19.52-.45,1.08-.65,1.72l-.67,2.1q-.36,1.13-.78,2.4c-.22.86-.46,1.78-.71,2.74a120.28,120.28,0,0,0-2.67,13.67c-.75,5.2-1.24,10.95-1.62,17-.71,12.1-.82,23.09-1.13,31-.15,4-.28,7.19-.44,9.41-.07,1.08-.13,1.93-.17,2.55l-.06.67c0,.15,0,.22,0,.22a.6.6,0,0,1,0-.23c0-.17,0-.39,0-.66,0-.63.05-1.48.08-2.56.1-2.22.18-5.43.28-9.41.22-7.94.28-18.93,1-31,.38-6.06.89-11.83,1.66-17a114.15,114.15,0,0,1,2.78-13.7c.27-1,.52-1.87.75-2.74s.56-1.65.82-2.4.49-1.44.71-2.09.49-1.2.69-1.71c.43-1,.77-1.78,1-2.36l.28-.61Z" style="fill:#263238"></path><path d="M416.56,336.39a9.84,9.84,0,0,1,1.69,2.86,21.06,21.06,0,0,1,1.26,8.94c-.37,7.63-1.05,18.15-2,29.76s-1.92,22.12-2.74,29.71c-.41,3.8-.76,6.86-1,9-.13,1-.24,1.84-.31,2.44l-.1.63a1.73,1.73,0,0,1,0,.22.77.77,0,0,1,0-.22c0-.18,0-.38.05-.64.05-.6.13-1.42.22-2.45.21-2.17.5-5.23.86-9,.73-7.6,1.69-18.1,2.6-29.71s1.65-22.14,2.1-29.74a21.44,21.44,0,0,0-1.09-8.86A18.54,18.54,0,0,0,416.56,336.39Z" style="fill:#263238"></path><path d="M426.14,372.15a7.66,7.66,0,0,1-2.62-.68,7.55,7.55,0,0,1-2.45-1.14,14.92,14.92,0,0,1,5.07,1.82Z" style="fill:#263238"></path><path d="M427.81,358.07a16.7,16.7,0,0,1-5.19,2.32,16.11,16.11,0,0,1,5.19-2.32Z" style="fill:#263238"></path><path d="M426.94,346.58a4.57,4.57,0,0,1-2.06.1,4.41,4.41,0,0,1-2-.39,4.57,4.57,0,0,1,2.06-.1A4.36,4.36,0,0,1,426.94,346.58Z" style="fill:#263238"></path><path d="M412.69,339.21c-.12.08-.72-.68-1.35-1.68a5,5,0,0,1-.94-1.95c.12-.07.72.68,1.35,1.69A5,5,0,0,1,412.69,339.21Z" style="fill:#263238"></path><path d="M408,346.16c0,.14-.88.23-2,.21a4.28,4.28,0,0,1-1.95-.29c0-.14.88-.23,2-.21S408,346,408,346.16Z" style="fill:#263238"></path><path d="M404.59,360.06a4.65,4.65,0,0,1-2.06-.56c-1.09-.44-1.93-.9-1.88-1a4.92,4.92,0,0,1,2.06.57C403.8,359.48,404.65,359.94,404.59,360.06Z" style="fill:#263238"></path><path d="M404.23,371.76c0,.13-.76.41-1.75.62s-1.84.27-1.86.14.75-.42,1.75-.63S404.2,371.62,404.23,371.76Z" style="fill:#263238"></path><path d="M402.64,390.88c0,.14-.81.4-1.86.59a4.11,4.11,0,0,1-2,.1c0-.14.81-.4,1.87-.59A4.06,4.06,0,0,1,402.64,390.88Z" style="fill:#263238"></path><path d="M401.58,401.44c.07.12-.63.61-1.55,1.1s-1.73.79-1.79.67.63-.62,1.56-1.1S401.52,401.32,401.58,401.44Z" style="fill:#263238"></path><path d="M410.21,413.42c-.12.07-.73-.77-1.36-1.87a5.55,5.55,0,0,1-.93-2.12c.12-.06.73.77,1.36,1.88A5.81,5.81,0,0,1,410.21,413.42Z" style="fill:#263238"></path><path d="M412.69,393.51c.1.1-.58.92-1.51,1.83s-1.76,1.57-1.85,1.47.58-.91,1.51-1.83S412.6,393.41,412.69,393.51Z" style="fill:#263238"></path><path d="M412.14,383.06c-.1.09-.73-.42-1.4-1.15s-1.14-1.39-1-1.48.73.42,1.4,1.15S412.24,383,412.14,383.06Z" style="fill:#263238"></path><path d="M413.85,369.71c.1.09-.46.89-1.26,1.78s-1.52,1.53-1.62,1.44.46-.88,1.26-1.77S413.75,369.62,413.85,369.71Z" style="fill:#263238"></path><path d="M414.82,360c-.1.1-.89-.52-1.76-1.38s-1.51-1.63-1.41-1.73.88.52,1.75,1.38S414.91,359.92,414.82,360Z" style="fill:#263238"></path><path d="M416.71,346.92a5,5,0,0,1-.89,2c-.6,1-1.18,1.77-1.3,1.7s.28-.94.88-2S416.59,346.85,416.71,346.92Z" style="fill:#263238"></path><path d="M420.26,334.79a4.54,4.54,0,0,1-.78,2c-.55,1-1.09,1.79-1.21,1.73s.23-.94.78-2S420.14,334.72,420.26,334.79Z" style="fill:#263238"></path><path d="M424.3,340.3c.06.12-.49.51-1.23.86s-1.39.55-1.45.42.49-.51,1.23-.86S424.24,340.18,424.3,340.3Z" style="fill:#263238"></path><path d="M424.4,383.89a5.47,5.47,0,0,1-2.7-.66,5.6,5.6,0,0,1-2.35-1.49,13.61,13.61,0,0,1,2.54,1A13.3,13.3,0,0,1,424.4,383.89Z" style="fill:#263238"></path><path d="M422.75,393.12c0,.14-.81.41-1.86.61a4.16,4.16,0,0,1-1.95.13c0-.14.8-.41,1.86-.61A4,4,0,0,1,422.75,393.12Z" style="fill:#263238"></path><path d="M420.72,409a5.39,5.39,0,0,1-2.1-1.85,5.27,5.27,0,0,1-1.32-2.46,14.64,14.64,0,0,1,1.7,2.16A16.59,16.59,0,0,1,420.72,409Z" style="fill:#263238"></path><path d="M398.51,416.19c-.08-.1.48-.73,1.26-1.4s1.48-1.12,1.57-1-.47.73-1.25,1.4S398.6,416.29,398.51,416.19Z" style="fill:#263238"></path><path d="M392.13,381.64c-.9-2.81-2.59-6.08-5.53-6.12a4.9,4.9,0,0,0-4.15,2.77,10.3,10.3,0,0,0-1.12,5.08,132.38,132.38,0,0,0,6.34,36.8h10.78A127.74,127.74,0,0,0,392.13,381.64Z" style="fill:#455a64"></path><path d="M372.62,364c-1.5-6-6-9.29-11.23-9.59-4.76.83-6.61,5.53-7.18,10.33s.93,9.6,2.4,14.21q7.09,22.2,14.2,44.41l13.42-1.47C380,402,377.54,383.64,372.62,364Z" style="fill:#455a64"></path><path d="M386.6,375.52a9.41,9.41,0,0,0-.92,1.52,10,10,0,0,0-.5,4.77c.21,2.05.44,4.52.78,7.23s.84,5.68,1.45,8.77c1.22,6.2,2.59,11.76,3.47,15.82.44,2,.77,3.67,1,4.81.09.52.17.95.23,1.31a1.66,1.66,0,0,1,0,.47,2.54,2.54,0,0,1-.14-.45c-.09-.35-.19-.78-.32-1.29-.28-1.21-.67-2.82-1.13-4.78-1-4-2.39-9.57-3.61-15.79-.61-3.11-1.09-6.09-1.42-8.82-.17-1.36-.28-2.66-.39-3.87s-.23-2.34-.29-3.38a9.79,9.79,0,0,1,.68-4.88A4.16,4.16,0,0,1,386.6,375.52Z" style="fill:#263238"></path><path d="M361.59,354a17.26,17.26,0,0,0-1.62,2.18,15.33,15.33,0,0,0-2.05,7,32.59,32.59,0,0,0,1.66,10.8c1.18,4,2.48,8.37,3.83,13,2.68,9.19,5.1,17.52,6.87,23.6.85,3,1.54,5.43,2,7.17.22.82.39,1.47.53,2a5.8,5.8,0,0,1,.15.69,3.32,3.32,0,0,1-.25-.66l-.62-1.93c-.53-1.74-1.27-4.16-2.17-7.13-1.81-6.07-4.28-14.38-7-23.57-1.35-4.6-2.63-9-3.79-13a31.94,31.94,0,0,1-1.57-10.95,15,15,0,0,1,2.22-7.1A8.47,8.47,0,0,1,361.59,354Z" style="fill:#263238"></path><path d="M381.3,420.43a5.07,5.07,0,0,1-.3-.65c-.18-.43-.46-1-.77-1.88-.64-1.65-1.46-4.08-2.3-7.13s-1.69-6.72-2.5-10.82-1.64-8.62-2.53-13.35-2-9.19-3.18-13.18a73,73,0,0,0-3.91-10.34,55.32,55.32,0,0,0-3.62-6.52c-.46-.75-.88-1.3-1.13-1.69a5.15,5.15,0,0,1-.38-.6,3.13,3.13,0,0,1,.46.54c.28.38.72.9,1.21,1.64a48.32,48.32,0,0,1,3.77,6.48,70.25,70.25,0,0,1,4,10.35,133.54,133.54,0,0,1,3.22,13.22c.89,4.74,1.73,9.25,2.49,13.36s1.59,7.77,2.39,10.82,1.57,5.49,2.16,7.15c.27.84.53,1.48.67,1.92A3.64,3.64,0,0,1,381.3,420.43Z" style="fill:#263238"></path><path d="M356.85,376.7c0,.13-.7.42-1.63.65s-1.71.3-1.75.17.7-.42,1.63-.65S356.82,376.57,356.85,376.7Z" style="fill:#263238"></path><path d="M355.43,367.54a6.5,6.5,0,0,1-2.26.25,6.73,6.73,0,0,1-2.28-.07,7.76,7.76,0,0,1,4.54-.18Z" style="fill:#263238"></path><path d="M356.94,359.18c-.09.1-.82-.37-1.63-1.06s-1.39-1.33-1.31-1.43.82.37,1.63,1.05S357,359.07,356.94,359.18Z" style="fill:#263238"></path><path d="M361,351.43c.14,0,.1.69.08,1.48s0,1.44-.16,1.46-.36-.63-.33-1.48S360.9,351.4,361,351.43Z" style="fill:#263238"></path><path d="M369.4,355.08c.11.08-.22.74-.73,1.48s-1,1.27-1.14,1.19.22-.74.73-1.47S369.29,355,369.4,355.08Z" style="fill:#263238"></path><path d="M374.83,364.51c.05.13-.65.53-1.55.9s-1.69.57-1.74.44.64-.52,1.55-.89S374.78,364.39,374.83,364.51Z" style="fill:#263238"></path><path d="M378.12,374.22a6.25,6.25,0,0,1-4.45,1,9.08,9.08,0,0,1,2.21-.56A8.76,8.76,0,0,1,378.12,374.22Z" style="fill:#263238"></path><path d="M363,371.46c-.13,0,0-.71.21-1.5s.55-1.39.68-1.35,0,.71-.21,1.5S363.13,371.5,363,371.46Z" style="fill:#263238"></path><path d="M365.11,383.64a4.79,4.79,0,0,1,.61-2c.46-1.05.93-1.87,1.06-1.82a4.75,4.75,0,0,1-.61,2C365.71,382.88,365.24,383.7,365.11,383.64Z" style="fill:#263238"></path><path d="M359.9,387a5.12,5.12,0,0,1-1.93-.43c-1-.32-1.86-.61-1.83-.75a3.62,3.62,0,0,1,2,.28C359.17,386.41,360,386.85,359.9,387Z" style="fill:#263238"></path><path d="M362.9,396.91c.08.11-.49.66-1.28,1.22s-1.49.93-1.57.82.49-.66,1.28-1.22S362.82,396.8,362.9,396.91Z" style="fill:#263238"></path><path d="M365.31,406.81c0,.13-.68.42-1.59.64s-1.67.3-1.7.16.68-.42,1.59-.64S365.28,406.68,365.31,406.81Z" style="fill:#263238"></path><path d="M378.39,382.49c.06.11-.54.6-1.43.93s-1.66.37-1.68.24.67-.38,1.51-.7S378.32,382.37,378.39,382.49Z" style="fill:#263238"></path><path d="M380.25,397.89c-.05.13-.78-.09-1.61-.48s-1.47-.82-1.41-.94.78.1,1.62.49S380.31,397.77,380.25,397.89Z" style="fill:#263238"></path><path d="M383.55,408.92a5.06,5.06,0,0,1-2.13-.57c-1.13-.45-2-.91-2-1a5.2,5.2,0,0,1,2.14.58C382.73,408.33,383.6,408.79,383.55,408.92Z" style="fill:#263238"></path><path d="M365.84,417.56c-.07-.13.81-.72,1.83-1.52s1.8-1.52,1.91-1.42-.55,1-1.61,1.81A4.5,4.5,0,0,1,365.84,417.56Z" style="fill:#263238"></path><path d="M374.56,412c-.14,0-.33-.72-.67-1.59s-.69-1.53-.57-1.62.67.52,1,1.45S374.69,411.94,374.56,412Z" style="fill:#263238"></path><path d="M372.25,398.69c-.08.11-.65-.16-1.26-.6s-1.05-.89-1-1,.64.16,1.26.6S372.33,398.58,372.25,398.69Z" style="fill:#263238"></path><path d="M392.57,377.91c.08.11-.47.65-1.23,1.21s-1.44.93-1.52.82.47-.66,1.23-1.21S392.49,377.8,392.57,377.91Z" style="fill:#263238"></path><path d="M395.63,386.29a3,3,0,0,1-1.91.19c-1.06-.11-1.86-.47-1.82-.6a5.46,5.46,0,0,1,1.87.11C394.78,386.1,395.62,386.15,395.63,386.29Z" style="fill:#263238"></path><path d="M382.47,388.16c0,.13-.77.42-1.8.48s-1.85-.1-1.84-.24a12.82,12.82,0,0,1,3.64-.24Z" style="fill:#263238"></path><path d="M383.6,380.25c0,.13-.82.15-1.7-.26s-1.39-1-1.29-1.12.7.31,1.5.67S383.61,380.11,383.6,380.25Z" style="fill:#263238"></path><path d="M396.76,395.27c-.07.12-.9-.27-1.84-.86s-1.65-1.17-1.57-1.29.89.28,1.83.87S396.83,395.16,396.76,395.27Z" style="fill:#263238"></path><rect x="358.65" y="418.77" width="70.23" height="12.45" style="fill:#FFC100"></rect><polygon points="363.89 428.74 372.43 465.94 414.29 465.94 423.63 428.74 363.89 428.74" style="fill:#FFC100"></polygon><path d="M428.84,431.23c0,.13-15.84.25-35.38.25s-35.38-.12-35.38-.25,15.84-.25,35.38-.25S428.84,431.09,428.84,431.23Z" style="fill:#263238"></path><path d="M389.78,388.43c-.11.08-.59-.48-1.07-1.25s-.77-1.43-.65-1.51.59.49,1.07,1.25S389.9,388.36,389.78,388.43Z" style="fill:#263238"></path><path d="M389.81,398.45c-.13,0,0-.89.37-1.89s.7-1.78.83-1.74,0,.89-.37,1.89S389.94,398.49,389.81,398.45Z" style="fill:#263238"></path><path d="M393.24,409c-.13.06-.65-.78-1.18-1.87a5,5,0,0,1-.72-2.09c.12-.06.64.78,1.17,1.87A5.3,5.3,0,0,1,393.24,409Z" style="fill:#263238"></path><path d="M385.82,417.42c-.1-.09.31-.74.93-1.45s1.21-1.22,1.31-1.13-.31.74-.93,1.45S385.92,417.51,385.82,417.42Z" style="fill:#263238"></path><path d="M384.26,402.06c0,.14-.7.13-1.51,0s-1.44-.37-1.42-.5.7-.13,1.51,0S384.29,401.93,384.26,402.06Z" style="fill:#263238"></path></g><g id="freepik--Character--inject-206"><polygon points="277.94 148.94 231.13 133.64 187.07 107.63 184 122.9 220.83 152.57 269.11 169.51 277.94 148.94" style="fill:#a26760"></polygon><path d="M162.23,92.44c2.26-.28,15.05,7.09,15.05,7.09L179,98.7a6,6,0,0,1,8.2,3.08c2.05,4.93,4.29,11.15,4.29,11.15l-6.83,9.35-3,1c-2.6,1.29-8-2.46-11.56-5.22s-1.44-4.9-1.44-4.9c-2.06-3.59,1.42-4.61,1.42-4.61-1.72-3.24,1.53-5,1.53-5S163.26,98.38,161,96.2,160,92.72,162.23,92.44Z" style="fill:#a26760"></path><path d="M170.18,108.42a22.67,22.67,0,0,0,2.26,1.78,11.17,11.17,0,0,0,1.22.83,5.49,5.49,0,0,0,1.63.54,3.94,3.94,0,0,0,1.92-.07,2.59,2.59,0,0,0,1.54-1.42,2,2,0,0,0,.06-1.12,2.42,2.42,0,0,0-.48-.93,11,11,0,0,0-1.36-1.3,21.73,21.73,0,0,0-2.53-1.86,18.71,18.71,0,0,0-1.85-1,2.67,2.67,0,0,0-.72-.29c0,.06.95.56,2.41,1.56a26.27,26.27,0,0,1,2.44,1.9,10.87,10.87,0,0,1,1.28,1.26,1.68,1.68,0,0,1,.36,1.65,2.24,2.24,0,0,1-1.29,1.18,3.57,3.57,0,0,1-1.72.08,5.48,5.48,0,0,1-1.53-.47,10.91,10.91,0,0,1-1.21-.77A19.17,19.17,0,0,0,170.18,108.42Z" style="fill:#7b4b45"></path><path d="M168.39,112.55s.16.22.51.56.86.8,1.54,1.33a9.54,9.54,0,0,0,2.67,1.48,4.18,4.18,0,0,0,1.83.26,1.84,1.84,0,0,0,1.25-3.14,9.19,9.19,0,0,0-1.28-1.29,29.61,29.61,0,0,0-2.36-1.88c-.7-.5-1.29-.88-1.7-1.12a2.34,2.34,0,0,0-.67-.33s.85.63,2.19,1.69c.67.52,1.45,1.17,2.28,1.93a8.88,8.88,0,0,1,1.21,1.24,1.64,1.64,0,0,1,.35,1.58,1.62,1.62,0,0,1-1.33.91,3.7,3.7,0,0,1-1.65-.22,10,10,0,0,1-2.61-1.35C169.24,113.21,168.44,112.5,168.39,112.55Z" style="fill:#7b4b45"></path><path d="M168.26,116.13a5.23,5.23,0,0,0,1.33,1.51,10.32,10.32,0,0,0,1.81,1.25,5.67,5.67,0,0,0,1.22.52,1.65,1.65,0,0,0,1.48-.29,1.4,1.4,0,0,0,.31-1.5,3.56,3.56,0,0,0-.73-1.13,8.46,8.46,0,0,0-1.69-1.41,15,15,0,0,0-1.68-1.08,6.44,6.44,0,0,0,1.51,1.32,9.92,9.92,0,0,1,1.57,1.42,3.23,3.23,0,0,1,.63,1,1,1,0,0,1-.2,1,1.24,1.24,0,0,1-1.11.21,5.86,5.86,0,0,1-1.13-.47,11,11,0,0,1-1.8-1.13C168.81,116.67,168.32,116.08,168.26,116.13Z" style="fill:#7b4b45"></path><path d="M179,98.7c-2.41,1.23-5.9,3.18-8.07,4.63.19,1.61,2,2.65,3.58,2.6a9.4,9.4,0,0,0,4.48-1.74A6.1,6.1,0,0,0,183.5,112" style="fill:#a26760"></path><path d="M183.5,112a8.21,8.21,0,0,1-2.48-1.33,5.9,5.9,0,0,1-1.79-2.53,6.12,6.12,0,0,1-.08-3.89l.16-.5-.45.27a10.3,10.3,0,0,1-4,1.66c-1.74.26-3.62-.84-3.8-2.37l-.09.18c2.26-1.5,4.29-2.64,5.72-3.47l1.66-1a3.16,3.16,0,0,0,.58-.37,3,3,0,0,0-.64.25c-.4.19-1,.48-1.72.86-1.46.77-3.51,1.87-5.82,3.36l-.09.06v.12a3,3,0,0,0,1.49,2.17,4.21,4.21,0,0,0,2.75.58,10.45,10.45,0,0,0,4.12-1.74l-.3-.23a6.42,6.42,0,0,0,.14,4.13,6.12,6.12,0,0,0,2,2.61,5.88,5.88,0,0,0,1.89,1A2.05,2.05,0,0,0,183.5,112Z" style="fill:#7b4b45"></path><path d="M241.85,431.76l6.74,21.69s-23.28,8.25-23.33,12.63l45.8-.58-7.93-36.09Z" style="fill:#455a64"></path><g style="opacity:0.6000000000000001"><path d="M262.64,450.76a1.88,1.88,0,0,1,1.4,2.07,1.8,1.8,0,0,1-2,1.4,2,2,0,0,1-1.47-2.2,1.86,1.86,0,0,1,2.28-1.22" style="fill:#fff"></path></g><g style="opacity:0.6000000000000001"><path d="M271.06,465.5l-.8-3.68-43.57,2.08a3.16,3.16,0,0,0-1.66,2.52Z" style="fill:#fff"></path></g><path d="M247.84,453.26c0,.22,1.14.27,2.27.93s1.77,1.57,2,1.47-.19-1.37-1.58-2.15S247.78,453.06,247.84,453.26Z" style="fill:#263238"></path><path d="M243.14,455.48c0,.22,1,.55,1.75,1.46s1.08,1.9,1.3,1.87.3-1.29-.72-2.4S243.13,455.27,243.14,455.48Z" style="fill:#263238"></path><path d="M240.7,461.36c.21,0,.46-1.09-.17-2.29s-1.71-1.62-1.79-1.43.59.81,1.1,1.8S240.48,461.35,240.7,461.36Z" style="fill:#263238"></path><path d="M248,447.85c.1.2,1.11-.16,2.38-.14s2.27.37,2.38.17-.88-.95-2.37-.95S247.85,447.68,248,447.85Z" style="fill:#263238"></path><path d="M247.65,443.09a4.19,4.19,0,0,0,2.29-.12,10.56,10.56,0,0,0,2.36-.86,13.41,13.41,0,0,0,1.28-.76,2.83,2.83,0,0,0,.66-.58,1,1,0,0,0,0-1.19,1.24,1.24,0,0,0-1-.46,2.57,2.57,0,0,0-.85.16,8,8,0,0,0-1.4.56,8.17,8.17,0,0,0-2.05,1.49c-1,1-1.33,1.89-1.25,1.93s.59-.66,1.63-1.52a9.14,9.14,0,0,1,2-1.26,9.46,9.46,0,0,1,1.3-.47c.48-.15.89-.17,1,0s.06.11,0,.25a1.87,1.87,0,0,1-.48.42,12.29,12.29,0,0,1-1.18.76,13.82,13.82,0,0,1-2.17,1A16.45,16.45,0,0,0,247.65,443.09Z" style="fill:#263238"></path><path d="M248,443.4c.09,0,.49-.79.5-2.24a7.62,7.62,0,0,0-.44-2.5,7.71,7.71,0,0,0-.66-1.36,1.86,1.86,0,0,0-1.51-1.08,1.06,1.06,0,0,0-.93.69,2.85,2.85,0,0,0-.19.85,5.22,5.22,0,0,0,.07,1.54,5.4,5.4,0,0,0,1.1,2.32c1,1.14,1.9,1.36,1.92,1.28s-.74-.51-1.48-1.61a5.38,5.38,0,0,1-.83-2.12,4.48,4.48,0,0,1,0-1.32c0-.49.2-.89.39-.85s.63.33.84.71a7.75,7.75,0,0,1,.63,1.21,8.36,8.36,0,0,1,.56,2.26C248,442.52,247.83,443.37,248,443.4Z" style="fill:#263238"></path><path d="M99.81,275.23,82.22,291S61.64,277.31,58.11,279.9l28,36.28,28.41-23.41Z" style="fill:#455a64"></path><g style="opacity:0.6000000000000001"><path d="M92.81,300.59A1.87,1.87,0,0,1,92,303a1.78,1.78,0,0,1-2.34-.78,2,2,0,0,1,.87-2.5,1.87,1.87,0,0,1,2.35,1.09" style="fill:#fff"></path></g><g style="opacity:0.6000000000000001"><path d="M86.08,316.18l2.86-2.36L60.72,279.73a3.21,3.21,0,0,0-3,.19Z" style="fill:#fff"></path></g><path d="M81.92,290.26c-.16.15.47,1.07.63,2.38s-.2,2.36,0,2.46,1-1,.77-2.56S82.05,290.09,81.92,290.26Z" style="fill:#263238"></path><path d="M77.32,287.84c-.2.1.13,1.09-.11,2.28s-.87,2-.72,2.16,1.21-.54,1.49-2S77.49,287.71,77.32,287.84Z" style="fill:#263238"></path><path d="M71.16,289.42c.09.19,1.15-.29,1.72-1.51s.28-2.34.08-2.3-.29,1-.78,2S71,289.24,71.16,289.42Z" style="fill:#263238"></path><path d="M86.33,287.12c-.1.2.8.79,1.54,1.82s1.07,2,1.29,2,.23-1.27-.66-2.47S86.4,286.92,86.33,287.12Z" style="fill:#263238"></path><path d="M89.94,284c-.07.06.39.83,1.47,1.76a10.41,10.41,0,0,0,2.11,1.37,10.2,10.2,0,0,0,1.38.57,3.05,3.05,0,0,0,.86.19,1,1,0,0,0,1-.69,1.22,1.22,0,0,0-.24-1.08,3.05,3.05,0,0,0-.64-.58,7.72,7.72,0,0,0-1.29-.79,8.19,8.19,0,0,0-2.42-.73,3.85,3.85,0,0,0-2.29.15c0,.13.87.08,2.19.39a9.11,9.11,0,0,1,2.19.83,8,8,0,0,1,1.16.76c.41.29.67.6.59.84,0,.08-.06.11-.23.12a2.6,2.6,0,0,1-.63-.14,11.87,11.87,0,0,1-1.31-.49,12.62,12.62,0,0,1-2.07-1.16C90.63,284.55,90,283.92,89.94,284Z" style="fill:#263238"></path><path d="M89.88,284.43c0,.09.92-.09,2.09-.95a7.42,7.42,0,0,0,1.73-1.85,7.34,7.34,0,0,0,.69-1.34,1.87,1.87,0,0,0,0-1.86,1.09,1.09,0,0,0-1.11-.33,3,3,0,0,0-.79.36,5.06,5.06,0,0,0-1.19,1,5.26,5.26,0,0,0-1.2,2.26,3,3,0,0,0,.13,2.31,16.55,16.55,0,0,1,.4-2.15,5.51,5.51,0,0,1,1.19-1.94,4.73,4.73,0,0,1,1-.81c.42-.26.84-.37.92-.2a1.31,1.31,0,0,1-.07,1.1,7.37,7.37,0,0,1-.59,1.23,8.48,8.48,0,0,1-1.47,1.81C90.62,284,89.83,284.32,89.88,284.43Z" style="fill:#263238"></path><path d="M309.8,157c-.2.82-24.43,19.88-28,25.05s-12.12,24.79-12.12,24.79l-15.27,15.71,39.64,20.17,51.73-50.87L354,171.28l-11.81-15.53-25.81-4.15Z" style="fill:#FFC100"></path><polygon points="314.27 153.36 277.99 145.89 266.06 169.43 299.8 184.91 314.27 153.36" style="fill:#FFC100"></polygon><g style="opacity:0.30000000000000004"><path d="M297.37,232.64a350.79,350.79,0,0,0-12.25-54.5l-2,3.64,5.28,51.48a13.31,13.31,0,0,0,1.31,5.3,4,4,0,0,0,7.71-1A13,13,0,0,0,297.37,232.64Z"></path></g><path d="M89,275.73s36.28-29.58,51.68-44A19,19,0,0,1,157.31,227l88.09,5.24-21.14,49.56-62-18-50,39.76Z" style="fill:#263238"></path><path d="M254.44,222.59c-.76.25-26,21.62-27,34.56,0,0-22.89,94.11-20.85,103.32s34.33,86.46,34.33,86.46l29.41-7.81-19.27-77.95h0l20.51-57.55s17.26-8.17,21.86-24.8.64-36.06.64-36.06Z" style="fill:#263238"></path><path d="M238.17,244a1.85,1.85,0,0,1-.25.49c-.21.36-.47.81-.8,1.36-.71,1.16-1.69,2.87-2.86,5s-2.48,4.72-3.82,7.65-2.68,6.2-4,9.69c-2.55,7-4.37,13.48-5.62,18.19-.61,2.3-1.1,4.19-1.46,5.58-.17.62-.3,1.12-.41,1.52a1.81,1.81,0,0,1-.18.52,2,2,0,0,1,.08-.54c.08-.41.18-.92.31-1.54.28-1.34.72-3.26,1.3-5.63A174.85,174.85,0,0,1,226,268c1.29-3.5,2.66-6.78,4-9.71s2.72-5.51,3.93-7.63,2.24-3.81,3-4.94l.88-1.3A2.49,2.49,0,0,1,238.17,244Z" style="fill:#455a64"></path><path d="M162.41,264.34a8.05,8.05,0,0,1-1.4-1.78,32.1,32.1,0,0,1-2.65-4.79,32.89,32.89,0,0,1-1.84-5.15,8.5,8.5,0,0,1-.41-2.23c.16,0,1,3.32,2.72,7.17S162.55,264.25,162.41,264.34Z" style="fill:#455a64"></path><path d="M289,252.27a8.74,8.74,0,0,1-1.44.67,31.8,31.8,0,0,1-4.12,1.36,21.1,21.1,0,0,1-6.41.66,15.09,15.09,0,0,1-7.51-2.39,12.24,12.24,0,0,1-4.76-6.26,11.92,11.92,0,0,1,1.4-10.42,7.19,7.19,0,0,1,.73-.93c.18-.2.28-.3.29-.29s-.32.46-.85,1.33a12.68,12.68,0,0,0-1.53,4,11.71,11.71,0,0,0,.42,6.2,11.87,11.87,0,0,0,4.59,6,15,15,0,0,0,7.26,2.35,22.13,22.13,0,0,0,6.29-.55,36.91,36.91,0,0,0,4.13-1.19A9.55,9.55,0,0,1,289,252.27Z" style="fill:#455a64"></path><path d="M252.33,227.14s.19-.06.52,0a2.55,2.55,0,0,1,1.26.72,2.18,2.18,0,0,1,.56,2.08,2.15,2.15,0,0,1-.68,1.15,1.8,1.8,0,0,1-1.4.43,2,2,0,0,1-1.3-.67,1.64,1.64,0,0,1-.37-1.32,2.4,2.4,0,0,1,1.31-1.72,4.05,4.05,0,0,1,1.36-.41c.33,0,.51,0,.52,0s-.73.19-1.7.74a2.09,2.09,0,0,0-1,1.46,1.29,1.29,0,0,0,1.24,1.41,1.49,1.49,0,0,0,1.57-1.18,1.85,1.85,0,0,0-.38-1.72A3.93,3.93,0,0,0,252.33,227.14Z" style="fill:#455a64"></path><path d="M290.87,155.6l-17.23,7.31a2.8,2.8,0,0,0-1.69,2.77l1.05,15a2.81,2.81,0,0,0,4,2.32l31.13-15.23a2.8,2.8,0,0,0,1.57-2.64l-.62-13.55a2.79,2.79,0,0,0-3.94-2.42Z" style="fill:#e0e0e0"></path><path d="M290.87,155.6s.08-.06.26-.15l.78-.38,3-1.42,4.83-2.21,3-1.38,1.65-.75a4.17,4.17,0,0,1,1.89-.55,3,3,0,0,1,2.95,2.69c.07,1.43.15,2.91.22,4.44s.15,3.12.23,4.75l.12,2.48.06,1.27a7.34,7.34,0,0,1,0,1.33,3,3,0,0,1-1.57,2.25L306,169.16l-5,2.43-10.43,5.11-10.45,5.1-2.5,1.22a4.51,4.51,0,0,1-1.36.51,2.9,2.9,0,0,1-1.46-.14,3,3,0,0,1-1.92-2,6.74,6.74,0,0,1-.17-1.36l-.09-1.29c-.23-3.44-.45-6.71-.66-9.78q-.07-1.14-.15-2.25c0-.37-.05-.74-.07-1.11a2.89,2.89,0,0,1,.19-1.13,3,3,0,0,1,1.47-1.62l1.85-.79,11.4-4.76,3.12-1.26.81-.32a1,1,0,0,1,.29-.09l-.27.14-.79.36-3.07,1.36-11.35,4.91-1.82.79a2.59,2.59,0,0,0-1.26,1.42,4.59,4.59,0,0,0-.09,2.07c.06.74.11,1.49.17,2.25.22,3.06.46,6.33.71,9.77,0,.43.06.86.1,1.3a5.42,5.42,0,0,0,.15,1.25,2.51,2.51,0,0,0,1.62,1.7,2.4,2.4,0,0,0,1.22.11,4.05,4.05,0,0,0,1.2-.46l2.51-1.23,10.44-5.11,10.44-5.1,5-2.42,2.4-1.17a2.54,2.54,0,0,0,1.32-1.89,8.55,8.55,0,0,0,0-1.24l-.06-1.26c0-.84-.07-1.67-.11-2.49-.06-1.63-.13-3.21-.2-4.75s-.13-3-.19-4.42a2.62,2.62,0,0,0-2.55-2.36,3.79,3.79,0,0,0-1.74.5l-1.66.73-3,1.34L295,153.84,292,155.17l-.81.33Z" style="fill:#263238"></path><path d="M283.32,179a22.22,22.22,0,0,1,.58-4.64c.64-3,6.46-12.9,6.46-12.9v-5.19l-2.73-.65s-.06-3,2.22-3.65c0,0,1.9-2.79,3.29-2.53,0,0-.13-1.78,3.92-.89s4.81,2.53,4.81,2.53l-1.44-1.74a1.37,1.37,0,0,1,1-2.24.94.94,0,0,1,.47.06c.38.25,4.18,3,4.18,3l.76,5.44-3,11.38-7.87,10.38-.61,6.4-12-4.8" style="fill:#a26760"></path><path d="M283.37,178.64s8.07,46.3,10.8,54.48,4,11.24,12.09,11.26c9,0,38.37-36.28,38.37-36.28l-19.39-15.64-16.47,23.35-12.85-38.46Z" style="fill:#a26760"></path><path d="M353.61,170.74s2,1.72,3.53,7.6c1.94,7.5-1.84,16.16-6.75,22.8-4.18,5.66-11.56,16.49-11.56,16.49l-20.9-16.69s11-14.58,13.38-17.57C337.21,176.05,353.61,170.74,353.61,170.74Z" style="fill:#FFC100"></path><path d="M291.35,218.54a.88.88,0,0,1-.05.25c-.05.19-.12.43-.19.72a9.21,9.21,0,0,1-1.34,2.52,11.74,11.74,0,0,1-3.36,3,14.48,14.48,0,0,1-5.67,1.89,13.21,13.21,0,0,1-7.15-1.1,8.84,8.84,0,0,1-3.19-2.55,11.42,11.42,0,0,1-1.92-3.87,23,23,0,0,1-.54-9.18,23.3,23.3,0,0,1,1.12-4.76,7.65,7.65,0,0,1,3-4.06,4.78,4.78,0,0,1,2.52-.71,3.44,3.44,0,0,1,2.41,1,3.31,3.31,0,0,1,1,2.37,2.73,2.73,0,0,1-1.28,2.2,3.67,3.67,0,0,1-2.43.53,4.19,4.19,0,0,1-2.18-1.06,7.05,7.05,0,0,1-2.06-4.07c-.26-1.47-.31-2.89-.43-4.26s-.2-2.72-.3-4c-.2-2.59-.38-5-.54-7.2a51.24,51.24,0,0,1-.26-6,10.49,10.49,0,0,1,1.06-4.39,6.89,6.89,0,0,1,1.78-2.23,3.72,3.72,0,0,1,.84-.52s-.28.18-.77.61A6.8,6.8,0,0,0,269.8,176a10.4,10.4,0,0,0-1,4.31,52.36,52.36,0,0,0,.34,5.92c.18,2.2.38,4.61.6,7.19.1,1.3.21,2.63.33,4s.18,2.81.44,4.21a6.58,6.58,0,0,0,1.92,3.79,3.58,3.58,0,0,0,1.91.93,3.21,3.21,0,0,0,2.09-.46,2.2,2.2,0,0,0,1-1.78,2.79,2.79,0,0,0-.86-2,3.49,3.49,0,0,0-4.3-.21,7,7,0,0,0-2.8,3.79,24,24,0,0,0-1.11,4.65,22.86,22.86,0,0,0,.5,9,11,11,0,0,0,1.82,3.73,8.41,8.41,0,0,0,3,2.44,13,13,0,0,0,6.92,1.13,14.07,14.07,0,0,0,5.56-1.79,11.69,11.69,0,0,0,3.35-2.88A11.11,11.11,0,0,0,291.35,218.54Z" style="fill:#455a64"></path><polygon points="272.41 172.31 270.56 173.63 270.81 174.85 272.53 173.98 272.41 172.31" style="fill:#263238"></polygon><path d="M335.24,177.09a4.42,4.42,0,0,1-.64.95l-1.9,2.49c-1.61,2.09-3.82,5-6.2,8.23s-4.48,6.23-6,8.39l-1.8,2.55a5.21,5.21,0,0,1-.71.91,4.75,4.75,0,0,1,.54-1c.38-.63,1-1.54,1.67-2.65,1.44-2.21,3.49-5.23,5.88-8.48s4.65-6.12,6.33-8.16c.84-1,1.54-1.83,2-2.38A5.31,5.31,0,0,1,335.24,177.09Z" style="fill:#263238"></path><path d="M351.61,170.49a48.64,48.64,0,0,0-5.31,1.06,49.35,49.35,0,0,0-5,2.14,11.34,11.34,0,0,1,4.82-2.63A11.5,11.5,0,0,1,351.61,170.49Z" style="fill:#263238"></path><path d="M342.34,84.59c3.68-3.29,11.78-1.89,13.46.7a6.24,6.24,0,0,1,7.86,3.56l8.48,2.8a9,9,0,0,1,4,2.11c1,1.12,1.37,3,.31,4.13,3,1.11,3.7,5.79,1.2,7.75a3.31,3.31,0,0,1-1,4.71,33.23,33.23,0,0,1,4.58,10.24,6.78,6.78,0,0,1,0,4.62c-.7,1.41-2.73,2.22-3.91,1.17a3.89,3.89,0,0,1-.25,4.18c1.46.18,1.66,2.5.55,3.46s-2.77.9-4.24.72-3.05-.43-4.34.28a1.35,1.35,0,0,0,.38,1,6.06,6.06,0,0,1,.49,8.36l-.55.63c-1,1.12-3.19,2-4.57,2.55-3.5,1.38-5.45.85-9.21,1,.76,2.49-5.8,7.16-12.15,1.24A133.32,133.32,0,0,1,305,151c-2-.2-4.44-.73-5.15-2.65a5,5,0,0,1-4.48-2,15.18,15.18,0,0,1-2.28-4.57,8.89,8.89,0,0,1-5.53-8.64,11,11,0,0,1-3.31-8.2,6.45,6.45,0,0,1-2.78-9,39,39,0,0,1,5.47-11.54c-2.27-.75-2.82-4-1.64-6.06s3.45-3.26,5.59-4.33c-1.79.28-3.08-2.06-2.48-3.77s2.3-2.75,3.94-3.52a33,33,0,0,1,7.55-2.46c1.15-3,5.42-6.06,8.43-7.12,12.14-4.27,20.4-4.81,34,7.53" style="fill:#263238"></path><path d="M342.12,156.91l9.21-52.81a4.71,4.71,0,0,0-3.42-5.38L324.16,88.57c-7.79-2.08-14.59,6.84-16.34,14.71-1.95,8.74-4,19.5-4,26.25a17.32,17.32,0,0,0,11.66,17s-1.32,8.84-1.32,8.84-2.25,6.79.64,6.76c3.86-.05,27.29-5.2,27.29-5.2" style="fill:#a26760"></path><path d="M307.33,113.44c.1.3,1.69,0,3.37.76s2.51,2.19,2.79,2.07c.13,0,.11-.51-.25-1.15a4.73,4.73,0,0,0-2.12-1.91,4.51,4.51,0,0,0-2.79-.34C307.63,113,307.28,113.31,307.33,113.44Z" style="fill:#263238"></path><path d="M325.82,116.57c.2.23,1.54-.69,3.39-.62s3.17,1,3.38.83-.1-.51-.68-1a4.64,4.64,0,0,0-2.69-.94,4.44,4.44,0,0,0-2.71.77C325.92,116.06,325.72,116.46,325.82,116.57Z" style="fill:#263238"></path><path d="M318.43,125a12,12,0,0,0-2.89-1c-.46-.12-.89-.28-.91-.61a2.33,2.33,0,0,1,.53-1.34c.61-1.06,1.26-2.17,1.94-3.33,2.71-4.76,4.75-8.71,4.56-8.82s-2.55,3.67-5.26,8.43c-.66,1.17-1.29,2.29-1.89,3.37a2.7,2.7,0,0,0-.53,1.79,1.15,1.15,0,0,0,.66.8,3.24,3.24,0,0,0,.78.24A12.29,12.29,0,0,0,318.43,125Z" style="fill:#263238"></path><path d="M315.51,146.51s7.07,1.86,16.74-2.06c0,0-3.69,9.54-17.42,6.64Z" style="fill:#7b4b45"></path><path d="M327.57,104.79c.11.52,2,.57,4.07,1.17s3.75,1.45,4.11,1.05c.16-.19-.07-.7-.7-1.3a7.37,7.37,0,0,0-6.22-1.69C328,104.21,327.53,104.54,327.57,104.79Z" style="fill:#263238"></path><path d="M310.91,103.08c.26.47,1.59.23,3.1.45s2.76.72,3.12.33c.16-.19,0-.64-.47-1.12a4.57,4.57,0,0,0-5-.63C311.05,102.45,310.8,102.85,310.91,103.08Z" style="fill:#263238"></path><path d="M301.12,109a9.23,9.23,0,0,1,2.85-5.49,33.45,33.45,0,0,0,2.73-2.1c1.72-1.81,1.82-4.56,2.72-6.88a10.13,10.13,0,0,1,7-6.07c2.6-.62,5.42-.18,7.9-1.16,1.84-.73,3.33-2.17,5.21-2.79,3.65-1.2,7.48,1,10.55,3.36.36,2.68-1.55,4.75-3.38,6.74a9.39,9.39,0,0,1-7.27,3c-2.09-.1-4.47-.85-6.1.47s-1.42,4.21-2.89,5.86c-2.09,2.36-6.1.92-9,2.2-2.22,1-3.38,3.39-4.68,5.45s-3.36,4.13-5.77,3.75A27.63,27.63,0,0,1,301.12,109Z" style="fill:#263238"></path><path d="M334.34,92a47.5,47.5,0,0,1,17.48,5.22,8.7,8.7,0,0,1,4.06,3.52,8.53,8.53,0,0,1,.41,4.73c-.62,5-3.31,10.86-5.73,15.26l-6.65,3c-4.67-1.67-1.54-9.71-.84-13.83a9.9,9.9,0,0,1-4.76-9.3A11,11,0,0,1,334.34,92Z" style="fill:#263238"></path><path d="M344.2,122c.51-2.83,4.07-3,6.36-1.25,1.25,1,2.09,2.67,1.58,5.68-1.37,8-9.15,5-9.12,4.76S343.6,125.33,344.2,122Z" style="fill:#a26760"></path><path d="M346,128.59s.12.12.34.27a1.47,1.47,0,0,0,1,.2c.9-.17,1.84-1.39,2.13-2.83a4.62,4.62,0,0,0-.05-2.07,1.61,1.61,0,0,0-.87-1.25.72.72,0,0,0-.89.24c-.14.21-.12.37-.17.38s-.15-.16,0-.48a.85.85,0,0,1,.4-.45,1.06,1.06,0,0,1,.81-.08A2,2,0,0,1,350,124a4.85,4.85,0,0,1,.11,2.32c-.33,1.61-1.42,3-2.63,3.12a1.54,1.54,0,0,1-1.25-.43C346,128.78,346,128.6,346,128.59Z" style="fill:#7b4b45"></path><path d="M346.5,132.08s0,0,0,.11a1,1,0,0,0,.07.32,1.89,1.89,0,0,0,.84,1,5,5,0,0,0,1.95.64,6.94,6.94,0,0,0,1.31.06,4.62,4.62,0,0,0,1.46-.27l-.09-.06a4,4,0,0,0,6.11,3.27l-.13,0a1.68,1.68,0,0,0,1,.83,2.37,2.37,0,0,0,1.32,0,2.12,2.12,0,0,0,1.15-.73,3,3,0,0,0,.56-1.29,4.2,4.2,0,0,0-.58-2.79,12.3,12.3,0,0,0-1.9-2.31l0,.18a2.84,2.84,0,0,0,1.49-1.77,4.12,4.12,0,0,0,0-2.41,6.41,6.41,0,0,0-1.19-2.17,19.85,19.85,0,0,0-1.73-1.83V123a3,3,0,0,0,1.06-2.25,4.34,4.34,0,0,0-.64-2.5,11,11,0,0,0-3.63-3.2l.05.15a5.41,5.41,0,0,0-5.09-7.28l.11.16a4.67,4.67,0,0,0-.65-4.06,4.6,4.6,0,0,0-3.22-2.06l.09.12a4.58,4.58,0,0,0-1.44-3.73A4.48,4.48,0,0,0,341.51,97l.08.09a4.57,4.57,0,0,0-.42-2.15,5.68,5.68,0,0,0-1.06-1.62,4.68,4.68,0,0,0-2.63-1.5l-.3,0h-.29a3,3,0,0,0-.52,0,4.47,4.47,0,0,0-.79.13l-.47.14c-.11,0-.16,0-.16.06l.16,0,.48-.12c.2-.06.48-.06.79-.11a4.46,4.46,0,0,1,.51,0l.28,0,.29.06a4.58,4.58,0,0,1,2.56,1.5A5.64,5.64,0,0,1,341,95a4.31,4.31,0,0,1,.39,2.07v.09h.1a4.31,4.31,0,0,1,3.13,1.28A4.37,4.37,0,0,1,346,102l0,.1.11,0a4.35,4.35,0,0,1,3.06,2,4.43,4.43,0,0,1,.62,3.85l-.06.16h.17a5.17,5.17,0,0,1,4.85,7l0,.1.09,0a10.82,10.82,0,0,1,3.55,3.11,4.14,4.14,0,0,1,.61,2.36,2.83,2.83,0,0,1-1,2.08l-.11.09.1.1a9.43,9.43,0,0,1,2.86,3.89,4,4,0,0,1,0,2.27,2.61,2.61,0,0,1-1.37,1.63l-.15.07.12.12a12.34,12.34,0,0,1,1.87,2.26,4.05,4.05,0,0,1,.56,2.65,2.2,2.2,0,0,1-1.55,1.86,1.78,1.78,0,0,1-2.08-.75l0-.09-.09.05a3.93,3.93,0,0,1-4.11-.07,4,4,0,0,1-1.77-3.05v-.09l-.09,0a4.81,4.81,0,0,1-1.42.27,6.69,6.69,0,0,1-1.28,0,5,5,0,0,1-1.93-.6,1.94,1.94,0,0,1-.85-.9C346.52,132.24,346.52,132.08,346.5,132.08Z" style="fill:#455a64"></path><path d="M378.25,126.88a3.58,3.58,0,0,0,.36-.46,4.32,4.32,0,0,0,.6-1.55,4.14,4.14,0,0,0-.37-2.61,4.35,4.35,0,0,0-2.72-2.19l.05.11a5.58,5.58,0,0,0-.28-4.07,5.5,5.5,0,0,0-1.39-1.86,13.13,13.13,0,0,0-2.1-1.29,4.14,4.14,0,0,1-1-.74,2.73,2.73,0,0,1-.63-1.08c-.27-.81-.29-1.74-.65-2.63a4.93,4.93,0,0,0-4.64-3l.12.16a6.52,6.52,0,0,0-6.35-8.14l.12.15a5.72,5.72,0,0,0-8.25-6.3l.13,0a7.68,7.68,0,0,0-2.63-2,11.33,11.33,0,0,0-2.82-1,13.54,13.54,0,0,0-4.83-.22,9.48,9.48,0,0,0-3,.87,4.81,4.81,0,0,0-.71.4l-.24.16s.33-.2,1-.51a10.25,10.25,0,0,1,3-.8,13.79,13.79,0,0,1,4.77.26,11.76,11.76,0,0,1,2.78,1,7.69,7.69,0,0,1,2.55,2l.06.07.07,0a5.67,5.67,0,0,1,5.64.33,5.6,5.6,0,0,1,2.27,5.73l0,.15h.15a6.26,6.26,0,0,1,6.11,7.83l0,.16h.17a4.7,4.7,0,0,1,4.42,2.83c.34.83.36,1.75.65,2.61a2.79,2.79,0,0,0,.68,1.16,4.74,4.74,0,0,0,1,.78,12.25,12.25,0,0,1,2.07,1.26,5.29,5.29,0,0,1,1.36,1.78,5.46,5.46,0,0,1,.3,3.94l0,.08.09,0a4.2,4.2,0,0,1,2.64,2.09,4.09,4.09,0,0,1,.41,2.54,4.42,4.42,0,0,1-.56,1.54C378.37,126.72,378.24,126.87,378.25,126.88Z" style="fill:#455a64"></path><path d="M300.74,120.45a.83.83,0,0,0,.1-.66,1.55,1.55,0,0,0-.4-.72,2.73,2.73,0,0,0-.94-.61,4.65,4.65,0,0,1-1.2-.67,2.5,2.5,0,0,1-.77-1.4,5.12,5.12,0,0,1,0-1.87c.1-.66.28-1.36.37-2.11a22,22,0,0,0-.5-4.89,6.73,6.73,0,0,1,.19-2.67,3.25,3.25,0,0,1,1.72-2.11,12.26,12.26,0,0,1,2.94-.64,4.81,4.81,0,0,0,1.52-.52,3.15,3.15,0,0,0,1.16-1.16,16.12,16.12,0,0,0,1.21-3.09,5.32,5.32,0,0,1,.73-1.47,2.49,2.49,0,0,1,1.31-.91,9,9,0,0,1,2.27,0,3.57,3.57,0,0,0,1.16-.16,2.28,2.28,0,0,0,1-.66,7.84,7.84,0,0,0,1.07-2,5,5,0,0,1,4.93-3,5.07,5.07,0,0,1,3.29,1.63l.09.11.08-.13a7.7,7.7,0,0,1,5.26-3.6,7,7,0,0,1,2.72.06,6.55,6.55,0,0,1,2.15.87,5.66,5.66,0,0,1,2.12,2.43,5.24,5.24,0,0,1,.32.81l.07.21,0,.07s0,0,0-.08l-.06-.21a4.64,4.64,0,0,0-.29-.83,5.72,5.72,0,0,0-2.11-2.51,6.74,6.74,0,0,0-2.18-.9,7.18,7.18,0,0,0-2.79-.1,7.93,7.93,0,0,0-5.41,3.67h.17a5.25,5.25,0,0,0-3.43-1.71,5.15,5.15,0,0,0-3.89,1.34A5.3,5.3,0,0,0,313.45,92a7.67,7.67,0,0,1-1,1.91,2.37,2.37,0,0,1-2,.73,9.23,9.23,0,0,0-2.34.06,2.78,2.78,0,0,0-1.44,1,5.47,5.47,0,0,0-.76,1.53,15.74,15.74,0,0,1-1.18,3,3.13,3.13,0,0,1-1.08,1.09,4.59,4.59,0,0,1-1.45.48,12.7,12.7,0,0,0-3,.67,3.13,3.13,0,0,0-1.18,1,4.12,4.12,0,0,0-.65,1.31,6.79,6.79,0,0,0-.18,2.75,22.11,22.11,0,0,1,.52,4.85c-.07.74-.25,1.43-.35,2.11a4.94,4.94,0,0,0,0,1.92,2.64,2.64,0,0,0,.82,1.46,4.9,4.9,0,0,0,1.24.67,2.68,2.68,0,0,1,.93.57,1.56,1.56,0,0,1,.4.69A1,1,0,0,1,300.74,120.45Z" style="fill:#455a64"></path><path d="M286.45,106.19a.79.79,0,0,0,.1-.14l.27-.43,1-1.66c.45-.72,1-1.62,1.67-2.59a7.26,7.26,0,0,1,3-2.6c.69-.28,1.47-.43,2.27-.68a5.51,5.51,0,0,0,1.17-.52,2.82,2.82,0,0,0,.94-1c.48-.79.6-1.74,1-2.57a2.23,2.23,0,0,1,.9-1,4.34,4.34,0,0,1,1.37-.46,7.82,7.82,0,0,0,1.49-.39,2.54,2.54,0,0,0,1.23-1,12.08,12.08,0,0,0,1-3,4.15,4.15,0,0,1,.7-1.43A2.1,2.1,0,0,1,306,86c1.08-.1,2.18.4,3.39.34a2.8,2.8,0,0,0,1.64-.65,7.77,7.77,0,0,0,1.17-1.27,14.8,14.8,0,0,1,1-1.3,3.17,3.17,0,0,1,1.3-.88,4.75,4.75,0,0,1,3.05.36,7,7,0,0,0,3,.61,8.1,8.1,0,0,0,2.8-.92,14.6,14.6,0,0,1,2.53-1,8.32,8.32,0,0,1,4.81.38,8.9,8.9,0,0,1,3.34,2.23,10,10,0,0,1,1.71,2.53,11,11,0,0,1,.64,1.83c.06.21.1.37.14.49l.05.17,0-.17c0-.13-.06-.29-.11-.5a10.5,10.5,0,0,0-.61-1.86,9.8,9.8,0,0,0-1.68-2.59,9.12,9.12,0,0,0-3.39-2.29A8.49,8.49,0,0,0,326,81a13.8,13.8,0,0,0-2.57,1.06,8.27,8.27,0,0,1-2.73.89,7.05,7.05,0,0,1-2.94-.61,11.09,11.09,0,0,0-1.55-.45,3.35,3.35,0,0,0-1.66.08,3.4,3.4,0,0,0-1.4.94A14.93,14.93,0,0,0,312,84.23a7.28,7.28,0,0,1-1.12,1.23,2.68,2.68,0,0,1-1.51.6c-1.12.06-2.22-.44-3.4-.34a2.3,2.3,0,0,0-1.53.78,4,4,0,0,0-.75,1.52,12,12,0,0,1-1,3,2.38,2.38,0,0,1-1.12.94,8.83,8.83,0,0,1-1.45.38,4.34,4.34,0,0,0-1.43.49,2.45,2.45,0,0,0-1,1.11c-.42.88-.53,1.82-1,2.57a3.37,3.37,0,0,1-2,1.41c-.78.25-1.57.41-2.28.7a7.29,7.29,0,0,0-3.07,2.68c-.7,1-1.2,1.9-1.64,2.62s-.76,1.29-1,1.69c-.11.18-.19.33-.25.44S286.44,106.19,286.45,106.19Z" style="fill:#455a64"></path><path d="M296,98.7s-.05,0-.14,0a1.13,1.13,0,0,0-.45,0,1.73,1.73,0,0,0-1,1.34,4.29,4.29,0,0,0,0,1.23,5.12,5.12,0,0,1,0,1.42,3.2,3.2,0,0,1-.73,1.43c-.37.45-.82.89-1.21,1.43a2.33,2.33,0,0,0-.43,2c.18.72.62,1.35.78,2.08a3,3,0,0,1-.47,2.2c-.39.7-.92,1.36-1.32,2.15a3.7,3.7,0,0,0-.41,1.28,3.36,3.36,0,0,0,.16,1.37,14.93,14.93,0,0,0,1.28,2.48,3.74,3.74,0,0,1,.57,2.65,12.42,12.42,0,0,1-1.28,2.62,4.12,4.12,0,0,0-.47,1.45,3.31,3.31,0,0,0,.22,1.5,12.24,12.24,0,0,0,1.48,2.48,6.6,6.6,0,0,1,1.16,2.44,20.88,20.88,0,0,0,.56,2.61,2.8,2.8,0,0,0,.7,1.11,3.68,3.68,0,0,0,1.09.68,8.88,8.88,0,0,1,1.07.53,3.62,3.62,0,0,1,.86.74,8,8,0,0,1,1.13,1.87c.31.65.59,1.28.91,1.85a5.54,5.54,0,0,0,2.59,2.38,5.89,5.89,0,0,0,2.61.55,5.35,5.35,0,0,0,1.66-.29,4.08,4.08,0,0,0,.54-.23,6.51,6.51,0,0,1-2.2.43,6.14,6.14,0,0,1-2.55-.58,5.43,5.43,0,0,1-2.49-2.35c-.32-.56-.59-1.19-.89-1.84a8.41,8.41,0,0,0-1.15-1.93,4,4,0,0,0-.91-.78c-.35-.22-.73-.37-1.09-.55a3.38,3.38,0,0,1-1-.64,2.82,2.82,0,0,1-.65-1,21.34,21.34,0,0,1-.54-2.58,6.83,6.83,0,0,0-1.19-2.53,12.2,12.2,0,0,1-1.45-2.43,3,3,0,0,1-.2-1.38,3.86,3.86,0,0,1,.44-1.37,12.7,12.7,0,0,0,1.3-2.67,3.13,3.13,0,0,0,0-1.49,5.66,5.66,0,0,0-.56-1.34,16.16,16.16,0,0,1-1.27-2.43,3.26,3.26,0,0,1-.15-1.27,3.71,3.71,0,0,1,.38-1.21c.38-.76.91-1.42,1.31-2.15a3.19,3.19,0,0,0,.48-2.35c-.18-.78-.62-1.4-.79-2.08a2.15,2.15,0,0,1,.38-1.86c.37-.53.82-1,1.19-1.43a3.26,3.26,0,0,0,.75-1.51,5,5,0,0,0-.07-1.46,3.77,3.77,0,0,1-.06-1.19,1.71,1.71,0,0,1,.88-1.31A1,1,0,0,1,296,98.7Z" style="fill:#455a64"></path><path d="M378.07,126.59a3,3,0,0,0,.65,0,4.67,4.67,0,0,0,1.79-.54,4.33,4.33,0,0,0,2-2.19,4.59,4.59,0,0,0-.23-3.89,11.55,11.55,0,0,0-1.43-1.84,5.44,5.44,0,0,1-1.3-2.09,3.63,3.63,0,0,1,.42-2.55c.41-.83,1-1.63,1.38-2.55a8,8,0,0,0-4.83-10.76l.05.19a4,4,0,0,0,.9-1.68,5.06,5.06,0,0,0,.1-1.94,5.78,5.78,0,0,0-.61-1.87,6.59,6.59,0,0,0-1.21-1.57,12.64,12.64,0,0,0-5.08-2.75,19,19,0,0,0-5.4-.85l.12.13a5.76,5.76,0,0,0-5.47-6.2,9.27,9.27,0,0,0-2.72.4,5.66,5.66,0,0,1-1.28.15,3.23,3.23,0,0,1-1.2-.27,10.26,10.26,0,0,1-2-1.28,9,9,0,0,0-1.93-1.17,7.22,7.22,0,0,0-2-.5,6.92,6.92,0,0,0-5.62,2,7.09,7.09,0,0,0-1,1.29,3.13,3.13,0,0,0-.27.51s.1-.17.3-.48a6.86,6.86,0,0,1,1-1.26,6.93,6.93,0,0,1,2.15-1.44,6.9,6.9,0,0,1,5.35,0,8.6,8.6,0,0,1,1.9,1.15,10.3,10.3,0,0,0,2.05,1.32,3.41,3.41,0,0,0,1.27.28,5.42,5.42,0,0,0,1.33-.14,9.23,9.23,0,0,1,2.67-.39,5.64,5.64,0,0,1,2.67.85,5.54,5.54,0,0,1,2.57,5.12V90h.13a18.85,18.85,0,0,1,5.33.84,12.34,12.34,0,0,1,5,2.7A6.07,6.07,0,0,1,376.71,95a5.45,5.45,0,0,1,.58,1.79,4.75,4.75,0,0,1-.09,1.84,3.72,3.72,0,0,1-.84,1.58l-.12.14.17.06a7.74,7.74,0,0,1,4.71,10.44c-.38.9-.95,1.7-1.36,2.55a3.75,3.75,0,0,0-.42,2.69,5.52,5.52,0,0,0,1.35,2.15,12.09,12.09,0,0,1,1.42,1.81,4.41,4.41,0,0,1,.25,3.76,4.24,4.24,0,0,1-1.9,2.16,4.38,4.38,0,0,1-1.74.57C378.3,126.6,378.07,126.58,378.07,126.59Z" style="fill:#263238"></path><path d="M293.77,92.82a1,1,0,0,0,0-.15l.09-.45c.09-.41.21-1,.36-1.72s.38-1.66.7-2.7a15.09,15.09,0,0,1,1.46-3.36,10.2,10.2,0,0,1,3-3.25,7.69,7.69,0,0,1,2.22-1,20.25,20.25,0,0,1,2.59-.44,7.34,7.34,0,0,0,2.68-.84A11.67,11.67,0,0,0,309.17,77c.71-.69,1.39-1.42,2.17-2.06A8.31,8.31,0,0,1,314,73.46a14.69,14.69,0,0,1,6-.58,38.6,38.6,0,0,1,5.6.86,29,29,0,0,1,8.84,3.57,20.74,20.74,0,0,1,4.87,4.22c.24.29.46.55.64.79s.31.44.42.61l.27.37c.06.08.09.13.1.12l-.08-.13-.24-.39c-.12-.17-.25-.38-.41-.63s-.39-.5-.62-.8a20,20,0,0,0-4.85-4.3,28.73,28.73,0,0,0-8.89-3.65,37.65,37.65,0,0,0-5.63-.88,14.77,14.77,0,0,0-6.08.59,8.55,8.55,0,0,0-2.7,1.56c-.79.66-1.48,1.39-2.18,2.08a11.38,11.38,0,0,1-2.24,1.78,6.94,6.94,0,0,1-2.59.82,24.26,24.26,0,0,0-2.62.46A7.57,7.57,0,0,0,299.28,81a10.44,10.44,0,0,0-3,3.33,15.18,15.18,0,0,0-1.44,3.41,26.79,26.79,0,0,0-.66,2.72c-.15.75-.25,1.34-.32,1.73l-.07.46C293.77,92.77,293.76,92.82,293.77,92.82Z" style="fill:#263238"></path><path d="M323.51,128.38l-6.18,1.52-.59.14a13,13,0,0,0,.79,3.09,3.2,3.2,0,0,0,2,1.79,3.6,3.6,0,0,0,2.19-.29,4.3,4.3,0,0,0,2.17-2.7A4.54,4.54,0,0,0,323.51,128.38Z" style="fill:#7b4b45"></path><path d="M319.2,134.9a4.62,4.62,0,0,0,2.34-.31,3.81,3.81,0,0,0,1.76-1.75,4.79,4.79,0,0,0,.39-3,6.53,6.53,0,0,0-.21-.79,1.15,1.15,0,0,0-.14-.31c0-.05,0-.05-.12,0l-1.51.39-2.59.64a11.27,11.27,0,0,1-2.43.47,11.29,11.29,0,0,1,2.33-.82l2.57-.76c.5-.14,1-.28,1.55-.43a.64.64,0,0,1,.61.23,1.88,1.88,0,0,1,.22.46,7.92,7.92,0,0,1,.23.87,5.07,5.07,0,0,1-.47,3.34,4.12,4.12,0,0,1-2,1.87,3.58,3.58,0,0,1-1.85.21C319.4,135.06,319.19,134.93,319.2,134.9Z" style="fill:#263238"></path><path d="M351.54,128.38a3.67,3.67,0,0,0-3.62-3.47,1.86,1.86,0,0,0-1.74,1,1.82,1.82,0,0,0,.3,2.1c.49.42,1.2.38,1.66.84a2.24,2.24,0,0,1,.41,1.91c-.11.68-.35,1.32-.4,2a1.77,1.77,0,0,0,.75,1.73,1.24,1.24,0,0,0,1.44-.52,5.17,5.17,0,0,0,.69-1.67A9.71,9.71,0,0,0,351.54,128.38Z" style="fill:#455a64"></path><path d="M313.36,145.24a5.62,5.62,0,0,1,.08.84c0,.59.06,1.4.11,2.41.07,2.14.18,5.16.31,8.87.06,1.87.12,3.92.19,6.12a15.88,15.88,0,0,0,.36,3.34,6.32,6.32,0,0,0,1.64,3,8.5,8.5,0,0,0,6.95,2.26,18.51,18.51,0,0,0,7.63-2.89,32.4,32.4,0,0,0,10.71-11.65,55.2,55.2,0,0,0,4.89-12.14c1-3.59,1.62-6.56,2.07-8.61.21-1,.37-1.78.5-2.36a4.93,4.93,0,0,1,.21-.82,6.31,6.31,0,0,1-.11.84c-.1.59-.23,1.38-.4,2.38-.39,2.06-.95,5-1.92,8.67a53.17,53.17,0,0,1-4.82,12.27,32.45,32.45,0,0,1-10.86,11.86,18.85,18.85,0,0,1-7.85,3,9,9,0,0,1-7.34-2.43,6.82,6.82,0,0,1-1.75-3.26,16.44,16.44,0,0,1-.34-3.44c-.05-2.19-.09-4.25-.13-6.12-.06-3.71-.11-6.73-.15-8.88,0-1,0-1.81,0-2.41A4.53,4.53,0,0,1,313.36,145.24Z" style="fill:#455a64"></path><path d="M303.54,199.91a6.64,6.64,0,0,1,.54-1.14l1.62-3c1.42-2.64,3.29-6.09,5.35-9.92s3.86-7.32,5.25-10l1.6-3a6.53,6.53,0,0,1,.65-1.08,6.25,6.25,0,0,1-.47,1.17c-.32.74-.82,1.8-1.45,3.1-1.25,2.6-3.05,6.16-5.12,10.05s-4,7.36-5.49,9.85c-.73,1.25-1.33,2.25-1.76,2.93A5,5,0,0,1,303.54,199.91Z" style="fill:#455a64"></path></g><g id="freepik--Floor--inject-206"><path d="M450.74,465.09c0,.15-89.88.27-200.73.27s-200.75-.12-200.75-.27,89.86-.26,200.75-.26S450.74,465,450.74,465.09Z" style="fill:#263238"></path></g><g id="freepik--speech-bubble--inject-206"><path d="M366.16,170.8l13.95,2A32.85,32.85,0,1,0,378,161.21v0Z" style="fill:#fff"></path><path d="M366.16,170.8l11.74-9.71a.14.14,0,0,1,.19,0l0,.06h0l-.27,0a32.79,32.79,0,0,1,4.35-16.54,29.37,29.37,0,0,1,3-4.28c.58-.67,1.16-1.38,1.78-2.06l2-2a33.16,33.16,0,0,1,23-8.21,32.87,32.87,0,0,1,13.44,3.35,33.48,33.48,0,0,1,11.34,9.24,32.39,32.39,0,0,1,6.4,13.83,33,33,0,0,1-.57,15.55,33.52,33.52,0,0,1-7.21,13,32.44,32.44,0,0,1-11.42,8.27,33.35,33.35,0,0,1-24.72.61,35.3,35.3,0,0,1-9.33-5.4A32.62,32.62,0,0,1,380,172.83l.1.08-13.93-2.11,14,1.85a.12.12,0,0,1,.1.08,32.69,32.69,0,0,0,9.89,13.64,35.09,35.09,0,0,0,9.24,5.29,32.89,32.89,0,0,0,24.36-.68A31.79,31.79,0,0,0,435,182.83,32.94,32.94,0,0,0,442,170a32.45,32.45,0,0,0,.56-15.29,31.82,31.82,0,0,0-6.29-13.61A33,33,0,0,0,425.16,132a32.34,32.34,0,0,0-13.23-3.33,32.73,32.73,0,0,0-22.67,8l-2,1.91c-.61.67-1.18,1.37-1.76,2a28.73,28.73,0,0,0-2.95,4.22,32.76,32.76,0,0,0-4.42,16.34.13.13,0,0,1-.13.14.14.14,0,0,1-.13-.11h0l.22.07Z" style="fill:#263238"></path><path d="M405.63,167.35a3.85,3.85,0,1,1-1.91-5.1A3.85,3.85,0,0,1,405.63,167.35Z" style="fill:#263238"></path><path d="M405.66,166c-.37.08-1.44-3.86-1.73-8.83s-.36-8.9,0-9,1.08,4,1.36,8.87S406,165.87,405.66,166Z" style="fill:#263238"></path><path d="M416.28,149.79c.15.27-2.63,1.89-6.52,1.72a9,9,0,0,1-4.69-1.42c-1.08-.73-1.4-1.54-1.26-1.62s.69.37,1.73.8a12.2,12.2,0,0,0,4.28.91C413.31,150.35,416.14,149.39,416.28,149.79Z" style="fill:#263238"></path><path d="M418,169a3.85,3.85,0,1,1-1.91-5.1A3.85,3.85,0,0,1,418,169Z" style="fill:#263238"></path><path d="M418,167.58c-.36.08-1.43-3.86-1.72-8.83s-.36-8.91,0-9,1.08,4,1.35,8.87S418.38,167.5,418,167.58Z" style="fill:#263238"></path><path d="M416.56,152.41c.2.28-2.36,2-6,2s-6.2-1.72-6-2,2.71.69,6,.67S416.39,152.05,416.56,152.41Z" style="fill:#263238"></path></g></svg>